#!OML:ASF E:/inclinewalkrobotboard/Project1/Captureday1/Session1/subject1.ASF
:FULLY-SPECIFIED
:DEGREES
38
root 0 0 0 -0.9669820970194927 -2.828006159647881 -2.5165437340243217
lowerback 9.392452336995216 0.36279106169755404 0.6850711657733819
upperback -0.030114706303267624 0.700311390606674 1.730826911903614
thorax -5.19250766111988 0.36293991707120216 1.3415319351491948
lowerneck -16.476045580208428 -2.957150029847684 -1.9251357471218005
upperneck 19.86669243364619 -3.7897984508910683 0.6971206733879916
head 9.046095235710991 -1.837016978613497 0.07986799774020326
rclavicle -6.617588205431959E-16 -4.802518945709715E-16
rhumerus -23.87198396505083 -18.858608888693837 -74.99617855436914
rradius 27.0374034482864
rwrist 6.4181240733216995
rhand -15.860903918539934 21.010305428366777
rfingers 7.125020000000035
rthumb 10.312896445575927 -8.474606648497694
lclavicle -6.603839445426802E-16 -3.1674025721716245E-16
lhumerus -29.716497426719613 1.4191814931306492 78.11046360290244
lradius 28.7321056702128
lwrist 3.188913987245053
lhand -23.877072822994585 23.32415005696407
lfingers 7.12502000000004
lthumb 2.540388049991133 53.00844748929757
rfemur -3.2108657718561773 -7.372408970080784 14.712346087992515
rtibia 39.17633875009561
rfoot -8.842225532394588 -8.084970694716192
rtoes 6.261388026775226
lfemur -13.72540909857932 -0.665354515424621 -20.669149685377285
ltibia 34.12185364845976
lfoot -9.027366938108681 -0.676459230285058
ltoes -2.2296357466086043
39
root 0 0 0 -0.9214955265173295 -2.8485556389076176 -2.5245565323632837
lowerback 9.36849767944171 0.3632112897654397 0.6801649463583401
upperback -0.04590749920262738 0.7001787222274033 1.7322747198739048
thorax -5.19634670002531 0.36314486501837684 1.3461286129758832
lowerneck -16.465929918410914 -2.9522989508006217 -1.922390728825909
upperneck 19.873559628022303 -3.7845522960867077 0.7021351957912363
head 9.047177516060005 -1.8342108758499713 0.08150300184189607
rclavicle -6.609794073523812E-16 -4.784867388114077E-16
rhumerus -23.77558195273876 -18.867563193000468 -74.9373701272425
rradius 27.038681280927307
rwrist 6.465013153695725
rhand -15.818774608181071 20.975918936729578
rfingers 7.125020000000033
rthumb 10.353168484803055 -8.5038015752642
lclavicle -6.583632745689366E-16 -3.187471897635642E-16
lhumerus -29.664517526838296 1.4302171458235797 78.0296929627938
lradius 28.745600035607225
lwrist 3.150902495508925
lhand -23.81887889429848 23.325531220794097
lfingers 7.12502000000004
lthumb 2.596793253462458 53.003280295093276
rfemur -3.0070526777673052 -7.616380996263615 14.47475674180886
rtibia 39.17911666146428
rfoot -8.870975900149059 -8.116889799016851
rtoes 6.3061422291487155
lfemur -13.852871048997564 -0.6276796706576526 -20.69742798704148
ltibia 34.170838706501016
lfoot -9.067115864738879 -0.6153412081414658
ltoes -2.180786604814662
40
root 0 0 0 -0.8847627457214102 -2.861686941723713 -2.5298336895267406
lowerback 9.348377232479265 0.36299467756806136 0.6756584479689103
upperback -0.059036494480784185 0.6995313036693251 1.7338986427435006
thorax -5.199250185801733 0.36299444894514293 1.350468845571379
lowerneck -16.45705972506038 -2.9490721074913697 -1.920692268772577
upperneck 19.88057055348442 -3.781089751444669 0.7058927981042862
head 9.04856564587689 -1.83256756116961 0.08271193557233003
rclavicle -6.5993959787360305E-16 -4.794877171719497E-16
rhumerus -23.70843471448083 -18.874455088915262 -74.89496262988428
rradius 27.040535670852783
rwrist 6.495461416552061
rhand -15.790379131302664 20.952545051489885
rfingers 7.125020000000033
rthumb 10.380305223930154 -8.523699829361586
lclavicle -6.567661238498179E-16 -3.2052846072459535E-16
lhumerus -29.62096188683889 1.4394067074591357 77.96278760734181
lradius 28.757186294029633
lwrist 3.1196695419053118
lhand -23.771266990361042 23.32658873783406
lfingers 7.125020000000039
lthumb 2.643163076852513 52.99895582713888
rfemur -2.815354900904026 -7.845250046137153 14.253471308462778
rtibia 39.179471946258694
rfoot -8.899050086494414 -8.146780317664481
rtoes 6.347022063049341
lfemur -13.95139222950926 -0.5990151001390007 -20.71990142358908
ltibia 34.20626058598961
lfoot -9.09957057589523 -0.567604063809636
ltoes -2.1433846545870416
41
root 0 0 0 -0.8631205448679538 -2.8670649222692504 -2.5315773843391067
lowerback 9.335907761514772 0.36246721842389473 0.6723705072661685
upperback -0.06697329188117251 0.6986326343652446 1.735169514832151
thorax -5.200877105473978 0.36266470486692015 1.3536430750577537
lowerneck -16.451340558268846 -2.947577278710051 -1.9200549636490005
upperneck 19.885452538743085 -3.7794701543479556 0.7080154940005716
head 9.049616708794654 -1.831936638926809 0.08341072685247886
rclavicle -6.593513020458852E-16 -4.800466299898353E-16
rhumerus -23.66234740651224 -18.879141818176137 -74.86586947571956
rradius 27.041774873954243
rwrist 6.516659876762141
rhand -15.770765837743687 20.936420942586828
rfingers 7.125020000000032
rthumb 10.399052141993332 -8.537428668451401
lclavicle -6.554580305948123E-16 -3.2187480763701485E-16
lhumerus -29.58703560209839 1.4465835191400265 77.91060001469592
lradius 28.766220979521393
lwrist 3.095235239813041
lhand -23.7339835461854 23.327369209983626
lfingers 7.125020000000038
lthumb 2.6794298937671925 52.9955369596341
rfemur -2.6699118434542584 -8.018711033824232 14.085776064083504
rtibia 39.179140319234705
rfoot -8.920471667584893 -8.169497314608607
rtoes 6.377937993827384
lfemur -14.026516863506167 -0.5770788398160924 -20.73698241730254
ltibia 34.233716926930505
lfoot -9.123937212165373 -0.5312877282785529
ltoes -2.1149234471238643
42
root 0 0 0 -1.0527926351073909 -2.76544050279988 -2.4833325407414364
lowerback 9.430933612852392 0.357530998230035 0.6852868547313142
upperback -0.00239585450748514 0.6935880225496959 1.7317864055672643
thorax -5.18553159848079 0.3594554034593956 1.3408138400261018
lowerneck -16.489528197653172 -2.969596094735995 -1.934288648995551
upperneck 19.859990624670125 -3.8032346319280874 0.6879936575114831
head 9.04576304167819 -1.8450002059985353 0.07721986475061238
rclavicle -6.613256112283857E-16 -4.805629185855923E-16
rhumerus -23.91559628893252 -18.85349230024987 -75.02772467426804
rradius 27.036707691033122
rwrist 6.395191396891068
rhand -15.88103487569642 21.026713827654056
rfingers 7.125020000000035
rthumb 10.292969181126256 -8.460030882057223
lclavicle -6.599393067989281E-16 -3.1502107378715746E-16
lhumerus -29.722868586703704 1.4169117540345848 78.12775417098428
lradius 28.73083218732379
lwrist 3.196063983559206
lhand -23.888335842082732 23.322848917605615
lfingers 7.125020000000041
lthumb 2.530251811260662 53.00810498330802
rfemur -3.2084408148117234 -7.360310417627247 14.727415415915473
rtibia 39.141780493921274
rfoot -8.850808069012983 -8.08443869877401
rtoes 6.250415910054638
lfemur -13.772221601300458 -0.6499247002920221 -20.68038058157246
ltibia 34.14455631679764
lfoot -9.038053811694203 -0.6550357258012589
ltoes -2.2141800740988966
43
root 0 0 0 -0.9989802213278978 -2.788336828619448 -2.493730721035422
lowerback 9.40223926733212 0.35786708465225303 0.6797872066484696
upperback -0.02145835984612887 0.6935397591146567 1.7334651092410749
thorax -5.189846463092873 0.3596780385330818 1.3462130840038444
lowerneck -16.477292339578113 -2.9643292515487154 -1.9311710364999022
upperneck 19.869409072519215 -3.7979182861928247 0.6935621528421443
head 9.047403695618968 -1.842197278830494 0.07895016379988784
rclavicle -6.617437718688551E-16 -4.807429110647015E-16
rhumerus -23.877888218424403 -18.858251213977823 -74.99782431856794
rradius 27.037728748331674
rwrist 6.415486164727568
rhand -15.863302765716096 21.012326889599457
rfingers 7.125020000000035
rthumb 10.31076856968529 -8.472972341852135
lclavicle -6.586726386457138E-16 -3.1705513002978005E-16
lhumerus -29.693249834686448 1.4220117706402107 78.08195833440581
lradius 28.73960374230838
lwrist 3.1771043319821946
lhand -23.85402589219774 23.32283269284343
lfingers 7.12502000000004
lthumb 2.5631188797224134 53.00455302843651
rfemur -3.0379091239665 -7.5643757950796555 14.533428432866657
rtibia 39.13792549025705
rfoot -8.87678627054505 -8.111731997583556
rtoes 6.286100563222188
lfemur -13.832706893890943 -0.6330564803718648 -20.693806147416307
ltibia 34.16598765109045
lfoot -9.056981196425893 -0.6252353987869661
ltoes -2.1903883851309036
44
root 0 0 0 -0.9525767523032336 -2.81188569074593 -2.5035020417837037
lowerback 9.378494714303699 0.35875125703383026 0.6755679915556123
upperback -0.03732557881957099 0.6940393533480591 1.7345753279836358
thorax -5.193797801027097 0.36018221572837006 1.350159185093207
lowerneck -16.467548898891188 -2.95896413721979 -1.9279592114828845
upperneck 19.875609553279805 -3.7921057910161973 0.698720101092372
head 9.048271757204189 -1.838982432814713 0.08061273281139592
rclavicle -6.610059487717737E-16 -4.788499066514772E-16
rhumerus -23.786662255916944 -18.866625528230493 -74.94271323518906
rradius 27.038785722648313
rwrist 6.460036638410578
rhand -15.823507011191563 20.97984272911534
rfingers 7.125020000000034
rthumb 10.348790018268982 -8.500531661147336
lclavicle -6.569619532136844E-16 -3.189338935847085E-16
lhumerus -29.646268411727554 1.4322498069512966 78.0081305521115
lradius 28.751599188051966
lwrist 3.1421477497877888
lhand -23.801159254964542 23.324318568626207
lfingers 7.125020000000039
lthumb 2.6143145684848434 53.00008954194254
rfemur -2.8515364121164595 -7.7877075287216115 14.315541216930939
rtibia 39.14162491000734
rfoot -8.902667888647326 -8.140910359487727
rtoes 6.327382206918333
lfemur -13.946119133557808 -0.5995603773302598 -20.718855772536056
ltibia 34.209532080186605
lfoot -9.09249167679071 -0.5708801958829106
ltoes -2.1467961839315244
45
root 0 0 0 -0.91424626934743 -2.8280880641880106 -2.5105183556538977
lowerback 9.358163381616087 0.35896314694586706 0.6716060033907718
upperback -0.05078869928209073 0.6939646865848176 1.7359174233559034
thorax -5.196868259258618 0.3603070832121987 1.3539845558986223
lowerneck -16.458845557148734 -2.955189174471275 -1.9257910904882873
upperneck 19.88213409758946 -3.788042475227109 0.7026908551694833
head 9.049484771065378 -1.836922225889785 0.08187333365050453
rclavicle -6.599809959075362E-16 -4.797481130867928E-16
rhumerus -23.72236684738877 -18.87317903282775 -74.90249230162587
rradius 27.04048425053997
rwrist 6.489219133816544
rhand -15.796429715232525 20.957538383009684
rfingers 7.125020000000033
rthumb 10.374648697048086 -8.51950397555592
lclavicle -6.556274627131741E-16 -3.2062013001282515E-16
lhumerus -29.60674062440114 1.440830429197411 77.9467385663358
lradius 28.76195517856774
lwrist 3.113314099259286
lhand -23.75783271704272 23.32548323713785
lfingers 7.125020000000039
lthumb 2.656491351485826 52.99635502105749
rfemur -2.673088356357752 -8.000963760587297 14.109097967268823
rtibia 39.14293295617328
rfoot -8.928487313505565 -8.168718942635541
rtoes 6.3656958070903045
lfemur -14.033666201249666 -0.5741666841993673 -20.738803162647685
ltibia 34.240668302392116
lfoot -9.121670079721723 -0.5284236806983635
ltoes -2.113490461049164
